# xmcd CD database file
#
# Track frame offsets:
#	150
#	18295
#	28565
#	40192
#	50845
#	65947
#	83335
#	95445
#	105945
#	133607
#	152040
#	162930
#	181570
#	198067
#	208555
#	217747
#	231950
#
# Disc length: 3245 seconds
#
# Revision: 3
# Processed by: cddbd v1.5.1PL2 Copyright (c) Steve Scherf et al.
# Submitted via: CDex 1.51
#
DISCID=d00cab11
DTITLE=King's Consort - King - Chance - Pergolesi In coelestibus regnis
DYEAR=1987
DGENRE=Vocal
TTITLE0=Stabat mater -I- Stabat mater
TTITLE1=Stabat mater -II- Cuius animam gementem
TTITLE2=Stabat mater -III- O quam tristis et afflicta
TTITLE3=Stabat mater -IV- Quae morebat et dolebat
TTITLE4=Stabat mater -V- Quis est homo, qui non fleret
TTITLE5=Stabat mater -VI- Vidit suum dulcem natum
TTITLE6=Stabat mater -VII- Eia Mater, fons amoris
TTITLE7=Stabat mater -VIII- Fac ut ardeat cor meum
TTITLE8=Stabat mater -XI- Sancta mater, istud agas
TTITLE9=Stabat mater -X- Fac ut portem Christi mortem
TTITLE10=Stabat mater -XI- Inflammatus et accensus
TTITLE11=Stabat mater -XII- Quando corpus morietur
TTITLE12=Salve Regina -I- Salve Regina
TTITLE13=Salve Regina -II- Ad te clamamus
TTITLE14=Salve Regina -III- Eia ergo advocata
TTITLE15=Salve Regina -IV- O clemens, o pia
TTITLE16=In coelestibus regnis
EXTD=Gillian Fisher, sopraan Michael Chance, countertenor\nThe King's Consort\ndirigent: Robert King YEAR: 1987
EXTT0=
EXTT1=
EXTT2=
EXTT3=
EXTT4=
EXTT5=
EXTT6=
EXTT7=
EXTT8=
EXTT9=
EXTT10=
EXTT11=
EXTT12=
EXTT13=
EXTT14=
EXTT15=
EXTT16=
PLAYORDER=
